<?xml version="1.0" standalone="no" ?>
<!DOCTYPE svg PUBLIC "-//W3C//DTD SVG 1.1//EN" "http://www.w3.org/Graphics/SVG/1.1/DTD/svg11.dtd">
<svg width="180px" height="180px" xmlns="http://www.w3.org/2000/svg" version="1.1" >
	<polygon points="0,0 0,10 10,10 10,0 " fill="rgb(196,196,196)" />
	<polygon points="0,10 0,20 10,20 10,10 " fill="rgb(196,196,196)" />
	<polygon points="0,20 0,30 10,30 10,20 " fill="rgb(196,196,196)" />
	<polygon points="0,30 0,40 10,40 10,30 " fill="rgb(196,196,196)" />
	<polygon points="0,40 0,50 10,50 10,40 " fill="rgb(196,196,196)" />
	<polygon points="0,50 0,60 7.5,57.5 10,50 " fill="rgb(196,196,196)" />
	<polygon points="0,60 0,70 10,70 12.5,62.5 7.5,57.5 " fill="rgb(196,196,196)" />
	<polygon points="0,70 0,80 10,80 10,70 " fill="rgb(196,196,196)" />
	<polygon points="0,80 0,90 10,90 10,80 " fill="rgb(196,196,196)" />
	<polygon points="0,90 0,100 10,100 10,90 " fill="rgb(196,196,196)" />
	<polygon points="0,100 0,110 7.5,112.5 12.5,107.5 10,100 " fill="rgb(196,196,196)" />
	<polygon points="0,110 0,120 10,120 7.5,112.5 " fill="rgb(196,196,196)" />
	<polygon points="0,120 0,130 10,130 10,120 " fill="rgb(196,196,196)" />
	<polygon points="0,130 0,140 10,140 10,130 " fill="rgb(196,196,196)" />
	<polygon points="0,140 0,150 10,150 10,140 " fill="rgb(196,196,196)" />
	<polygon points="0,150 0,160 10,160 10,150 " fill="rgb(196,196,196)" />
	<polygon points="0,160 0,170 10,170 10,160 " fill="rgb(196,196,196)" />
	<polygon points="0,170 0,180 10,180 10,170 " fill="rgb(196,196,196)" />
	<polygon points="10,0 10,10 20,10 20,0 " fill="rgb(196,196,196)" />
	<polygon points="10,10 10,20 20,20 20,10 " fill="rgb(196,196,196)" />
	<polygon points="10,20 10,30 20,30 20,20 " fill="rgb(196,196,196)" />
	<polygon points="10,30 10,40 17.5,37.5 20,30 " fill="rgb(196,196,196)" />
	<polygon points="10,40 10,50 20,50 22.5,42.5 17.5,37.5 " fill="rgb(196,196,196)" />
	<polygon points="10,50 7.5,57.5 12.5,62.5 17.5,57.5 20,50 " fill="rgb(196,196,196)" />
	<polygon points="12.5,62.5 10,70 20,70 22.5,62.5 17.5,57.5 " fill="rgb(0,0,0)" />
	<polygon points="10,70 10,80 20,80 20,70 " fill="rgb(0,0,0)" />
	<polygon points="10,80 10,90 20,90 20,80 " fill="rgb(0,0,0)" />
	<polygon points="10,90 10,100 20,100 20,90 " fill="rgb(0,0,0)" />
	<polygon points="10,100 12.5,107.5 17.5,112.5 22.5,107.5 20,100 " fill="rgb(0,0,0)" />
	<polygon points="12.5,107.5 7.5,112.5 10,120 20,120 17.5,112.5 " fill="rgb(196,196,196)" />
	<polygon points="10,120 10,130 17.5,132.5 22.5,127.5 20,120 " fill="rgb(196,196,196)" />
	<polygon points="10,130 10,140 20,140 17.5,132.5 " fill="rgb(196,196,196)" />
	<polygon points="10,140 10,150 20,150 20,140 " fill="rgb(196,196,196)" />
	<polygon points="10,150 10,160 20,160 20,150 " fill="rgb(196,196,196)" />
	<polygon points="10,160 10,170 20,170 20,160 " fill="rgb(196,196,196)" />
	<polygon points="10,170 10,180 20,180 20,170 " fill="rgb(196,196,196)" />
	<polygon points="20,0 20,10 30,10 30,0 " fill="rgb(196,196,196)" />
	<polygon points="20,10 20,20 30,20 30,10 " fill="rgb(196,196,196)" />
	<polygon points="20,20 20,30 27.5,27.5 30,20 " fill="rgb(196,196,196)" />
	<polygon points="20,30 17.5,37.5 22.5,42.5 27.5,37.5 32.5,32.5 27.5,27.5 " fill="rgb(196,196,196)" />
	<polygon points="22.5,42.5 20,50 30,50 32.5,42.5 27.5,37.5 " fill="rgb(0,0,0)" />
	<polygon points="20,50 17.5,57.5 22.5,62.5 27.5,57.5 30,50 " fill="rgb(0,0,0)" />
	<polygon points="22.5,62.5 20,70 30,70 32.5,62.5 27.5,57.5 " fill="rgb(192,192,192)" />
	<polygon points="20,70 20,80 30,80 30,70 " fill="rgb(192,192,192)" />
	<polygon points="20,80 20,90 30,90 30,80 " fill="rgb(192,192,192)" />
	<polygon points="20,90 20,100 30,100 30,90 " fill="rgb(192,192,192)" />
	<polygon points="20,100 22.5,107.5 30,110 30,100 " fill="rgb(192,192,192)" />
	<polygon points="22.5,107.5 17.5,112.5 20,120 30,120 30,110 " fill="rgb(0,0,0)" />
	<polygon points="20,120 22.5,127.5 27.5,132.5 32.5,127.5 30,120 " fill="rgb(0,0,0)" />
	<polygon points="22.5,127.5 17.5,132.5 20,140 27.5,142.5 32.5,137.5 27.5,132.5 " fill="rgb(196,196,196)" />
	<polygon points="20,140 20,150 30,150 27.5,142.5 " fill="rgb(196,196,196)" />
	<polygon points="20,150 20,160 30,160 30,150 " fill="rgb(196,196,196)" />
	<polygon points="20,160 20,170 30,170 30,160 " fill="rgb(196,196,196)" />
	<polygon points="20,170 20,180 30,180 30,170 " fill="rgb(196,196,196)" />
	<polygon points="30,0 30,10 40,10 40,0 " fill="rgb(196,196,196)" />
	<polygon points="30,10 30,20 37.5,17.5 40,10 " fill="rgb(196,196,196)" />
	<polygon points="30,20 27.5,27.5 32.5,32.5 37.5,27.5 42.5,22.5 37.5,17.5 " fill="rgb(196,196,196)" />
	<polygon points="32.5,32.5 27.5,37.5 32.5,42.5 37.5,37.5 42.5,32.5 37.5,27.5 " fill="rgb(0,0,0)" />
	<polygon points="32.5,42.5 30,50 40,50 42.5,42.5 37.5,37.5 " fill="rgb(192,192,192)" />
	<polygon points="30,50 27.5,57.5 32.5,62.5 37.5,57.5 40,50 " fill="rgb(192,192,192)" />
	<polygon points="32.5,62.5 30,70 40,70 42.5,62.5 37.5,57.5 " fill="rgb(224,224,224)" />
	<polygon points="30,70 30,80 40,80 40,70 " fill="rgb(224,224,224)" />
	<polygon points="30,80 30,90 40,90 40,80 " fill="rgb(224,224,224)" />
	<polygon points="30,90 30,100 40,100 40,90 " fill="rgb(224,224,224)" />
	<polygon points="30,100 30,110 40,110 40,100 " fill="rgb(224,224,224)" />
	<polygon points="30,110 30,120 37.5,122.5 42.5,117.5 40,110 " fill="rgb(224,224,224)" />
	<polygon points="30,120 32.5,127.5 40,130 37.5,122.5 " fill="rgb(192,192,192)" />
	<polygon points="32.5,127.5 27.5,132.5 32.5,137.5 37.5,142.5 42.5,137.5 40,130 " fill="rgb(0,0,0)" />
	<polygon points="32.5,137.5 27.5,142.5 30,150 37.5,152.5 42.5,147.5 37.5,142.5 " fill="rgb(196,196,196)" />
	<polygon points="30,150 30,160 40,160 37.5,152.5 " fill="rgb(196,196,196)" />
	<polygon points="30,160 30,170 40,170 40,160 " fill="rgb(196,196,196)" />
	<polygon points="30,170 30,180 40,180 40,170 " fill="rgb(196,196,196)" />
	<polygon points="40,0 40,10 50,10 50,0 " fill="rgb(196,196,196)" />
	<polygon points="40,10 37.5,17.5 42.5,22.5 50,20 50,10 " fill="rgb(196,196,196)" />
	<polygon points="42.5,22.5 37.5,27.5 42.5,32.5 50,30 50,20 " fill="rgb(0,0,0)" />
	<polygon points="42.5,32.5 37.5,37.5 42.5,42.5 50,40 50,30 " fill="rgb(192,192,192)" />
	<polygon points="42.5,42.5 40,50 50,50 50,40 " fill="rgb(224,224,224)" />
	<polygon points="40,50 37.5,57.5 42.5,62.5 47.5,57.5 50,50 " fill="rgb(224,224,224)" />
	<polygon points="42.5,62.5 40,70 47.5,72.5 52.5,67.5 52.5,62.5 47.5,57.5 " fill="rgb(248,248,248)" />
	<polygon points="40,70 40,80 50,80 47.5,72.5 " fill="rgb(248,248,248)" />
	<polygon points="40,80 40,90 50,90 50,80 " fill="rgb(248,248,248)" />
	<polygon points="40,90 40,100 47.5,97.5 50,90 " fill="rgb(248,248,248)" />
	<polygon points="40,100 40,110 50,110 52.5,102.5 47.5,97.5 " fill="rgb(248,248,248)" />
	<polygon points="40,110 42.5,117.5 47.5,122.5 52.5,117.5 50,110 " fill="rgb(248,248,248)" />
	<polygon points="42.5,117.5 37.5,122.5 40,130 47.5,132.5 52.5,127.5 47.5,122.5 " fill="rgb(224,224,224)" />
	<polygon points="40,130 42.5,137.5 50,140 47.5,132.5 " fill="rgb(224,224,224)" />
	<polygon points="42.5,137.5 37.5,142.5 42.5,147.5 50,150 50,140 " fill="rgb(0,0,0)" />
	<polygon points="42.5,147.5 37.5,152.5 40,160 50,160 50,150 " fill="rgb(196,196,196)" />
	<polygon points="40,160 40,170 50,170 50,160 " fill="rgb(196,196,196)" />
	<polygon points="40,170 40,180 50,180 50,170 " fill="rgb(196,196,196)" />
	<polygon points="50,0 50,10 57.5,7.5 60,0 " fill="rgb(196,196,196)" />
	<polygon points="50,10 50,20 57.5,17.5 62.5,12.5 57.5,7.5 " fill="rgb(196,196,196)" />
	<polygon points="50,20 50,30 57.5,27.5 62.5,22.5 57.5,17.5 " fill="rgb(0,0,0)" />
	<polygon points="50,30 50,40 60,40 62.5,32.5 57.5,27.5 " fill="rgb(192,192,192)" />
	<polygon points="50,40 50,50 60,50 60,40 " fill="rgb(0,0,0)" />
	<polygon points="50,50 47.5,57.5 52.5,62.5 60,60 60,50 " fill="rgb(248,248,248)" />
	<polygon points="52.5,62.5 52.5,67.5 60,70 60,60 " fill="rgb(0,0,0)" />
	<polygon points="52.5,67.5 47.5,72.5 50,80 60,80 60,70 " fill="rgb(248,248,248)" />
	<polygon points="50,80 50,90 57.5,87.5 60,80 " fill="rgb(248,248,248)" />
	<polygon points="50,90 47.5,97.5 52.5,102.5 57.5,97.5 62.5,92.5 57.5,87.5 " fill="rgb(248,248,248)" />
	<polygon points="52.5,102.5 50,110 60,110 62.5,102.5 57.5,97.5 " fill="rgb(0,0,0)" />
	<polygon points="50,110 52.5,117.5 57.5,122.5 62.5,117.5 60,110 " fill="rgb(0,0,0)" />
	<polygon points="52.5,117.5 47.5,122.5 52.5,127.5 60,130 57.5,122.5 " fill="rgb(248,248,248)" />
	<polygon points="52.5,127.5 47.5,132.5 50,140 60,140 60,130 " fill="rgb(224,224,224)" />
	<polygon points="50,140 50,150 57.5,152.5 62.5,147.5 60,140 " fill="rgb(0,0,0)" />
	<polygon points="50,150 50,160 57.5,162.5 62.5,157.5 57.5,152.5 " fill="rgb(196,196,196)" />
	<polygon points="50,160 50,170 60,170 57.5,162.5 " fill="rgb(196,196,196)" />
	<polygon points="50,170 50,180 60,180 60,170 " fill="rgb(196,196,196)" />
	<polygon points="60,0 57.5,7.5 62.5,12.5 70,10 70,0 " fill="rgb(196,196,196)" />
	<polygon points="62.5,12.5 57.5,17.5 62.5,22.5 70,20 70,10 " fill="rgb(0,0,0)" />
	<polygon points="62.5,22.5 57.5,27.5 62.5,32.5 70,30 70,20 " fill="rgb(192,192,192)" />
	<polygon points="62.5,32.5 60,40 70,40 70,30 " fill="rgb(224,224,224)" />
	<polygon points="60,40 60,50 70,50 70,40 " fill="rgb(0,0,0)" />
	<polygon points="60,50 60,60 70,60 70,50 " fill="rgb(248,248,248)" />
	<polygon points="60,60 60,70 70,70 70,60 " fill="rgb(0,0,0)" />
	<polygon points="60,70 60,80 70,80 70,70 " fill="rgb(248,248,248)" />
	<polygon points="60,80 57.5,87.5 62.5,92.5 70,90 70,80 " fill="rgb(248,248,248)" />
	<polygon points="62.5,92.5 57.5,97.5 62.5,102.5 70,100 70,90 " fill="rgb(0,0,0)" />
	<polygon points="62.5,102.5 60,110 70,110 70,100 " fill="rgb(248,248,248)" />
	<polygon points="60,110 62.5,117.5 70,120 70,110 " fill="rgb(248,248,248)" />
	<polygon points="62.5,117.5 57.5,122.5 60,130 70,130 70,120 " fill="rgb(0,0,0)" />
	<polygon points="60,130 60,140 67.5,142.5 72.5,137.5 70,130 " fill="rgb(224,224,224)" />
	<polygon points="60,140 62.5,147.5 67.5,152.5 72.5,147.5 67.5,142.5 " fill="rgb(192,192,192)" />
	<polygon points="62.5,147.5 57.5,152.5 62.5,157.5 67.5,162.5 72.5,157.5 67.5,152.5 " fill="rgb(0,0,0)" />
	<polygon points="62.5,157.5 57.5,162.5 60,170 67.5,172.5 72.5,167.5 67.5,162.5 " fill="rgb(196,196,196)" />
	<polygon points="60,170 60,180 70,180 67.5,172.5 " fill="rgb(196,196,196)" />
	<polygon points="70,0 70,10 80,10 80,0 " fill="rgb(196,196,196)" />
	<polygon points="70,10 70,20 80,20 80,10 " fill="rgb(0,0,0)" />
	<polygon points="70,20 70,30 80,30 80,20 " fill="rgb(192,192,192)" />
	<polygon points="70,30 70,40 80,40 80,30 " fill="rgb(224,224,224)" />
	<polygon points="70,40 70,50 77.5,47.5 80,40 " fill="rgb(0,0,0)" />
	<polygon points="70,50 70,60 77.5,62.5 82.5,57.5 82.5,52.5 77.5,47.5 " fill="rgb(248,248,248)" />
	<polygon points="70,60 70,70 77.5,67.5 77.5,62.5 " fill="rgb(0,0,0)" />
	<polygon points="70,70 70,80 80,80 82.5,72.5 77.5,67.5 " fill="rgb(248,248,248)" />
	<polygon points="70,80 70,90 77.5,92.5 82.5,87.5 80,80 " fill="rgb(248,248,248)" />
	<polygon points="70,90 70,100 77.5,97.5 77.5,92.5 " fill="rgb(0,0,0)" />
	<polygon points="70,100 70,110 80,110 82.5,102.5 77.5,97.5 " fill="rgb(248,248,248)" />
	<polygon points="70,110 70,120 80,120 80,110 " fill="rgb(248,248,248)" />
	<polygon points="70,120 70,130 80,130 80,120 " fill="rgb(0,0,0)" />
	<polygon points="70,130 72.5,137.5 80,140 80,130 " fill="rgb(248,248,248)" />
	<polygon points="72.5,137.5 67.5,142.5 72.5,147.5 80,150 80,140 " fill="rgb(224,224,224)" />
	<polygon points="72.5,147.5 67.5,152.5 72.5,157.5 80,160 80,150 " fill="rgb(192,192,192)" />
	<polygon points="72.5,157.5 67.5,162.5 72.5,167.5 80,170 80,160 " fill="rgb(0,0,0)" />
	<polygon points="72.5,167.5 67.5,172.5 70,180 80,180 80,170 " fill="rgb(196,196,196)" />
	<polygon points="80,0 80,10 90,10 90,0 " fill="rgb(196,196,196)" />
	<polygon points="80,10 80,20 90,20 90,10 " fill="rgb(0,0,0)" />
	<polygon points="80,20 80,30 90,30 90,20 " fill="rgb(192,192,192)" />
	<polygon points="80,30 80,40 90,40 90,30 " fill="rgb(224,224,224)" />
	<polygon points="80,40 77.5,47.5 82.5,52.5 90,50 90,40 " fill="rgb(248,248,248)" />
	<polygon points="82.5,52.5 82.5,57.5 90,60 90,50 " fill="rgb(248,248,248)" />
	<polygon points="82.5,57.5 77.5,62.5 77.5,67.5 82.5,72.5 90,70 90,60 " fill="rgb(248,248,248)" />
	<polygon points="82.5,72.5 80,80 90,80 90,70 " fill="rgb(248,248,248)" />
	<polygon points="80,80 82.5,87.5 90,90 90,80 " fill="rgb(248,248,248)" />
	<polygon points="82.5,87.5 77.5,92.5 77.5,97.5 82.5,102.5 90,100 90,90 " fill="rgb(248,248,248)" />
	<polygon points="82.5,102.5 80,110 90,110 90,100 " fill="rgb(248,248,248)" />
	<polygon points="80,110 80,120 90,120 90,110 " fill="rgb(248,248,248)" />
	<polygon points="80,120 80,130 90,130 90,120 " fill="rgb(0,0,0)" />
	<polygon points="80,130 80,140 90,140 90,130 " fill="rgb(248,248,248)" />
	<polygon points="80,140 80,150 90,150 90,140 " fill="rgb(224,224,224)" />
	<polygon points="80,150 80,160 87.5,157.5 90,150 " fill="rgb(192,192,192)" />
	<polygon points="80,160 80,170 87.5,167.5 92.5,162.5 87.5,157.5 " fill="rgb(0,0,0)" />
	<polygon points="80,170 80,180 90,180 92.5,172.5 87.5,167.5 " fill="rgb(196,196,196)" />
	<polygon points="90,0 90,10 100,10 100,0 " fill="rgb(196,196,196)" />
	<polygon points="90,10 90,20 100,20 100,10 " fill="rgb(0,0,0)" />
	<polygon points="90,20 90,30 100,30 100,20 " fill="rgb(192,192,192)" />
	<polygon points="90,30 90,40 100,40 100,30 " fill="rgb(224,224,224)" />
	<polygon points="90,40 90,50 97.5,47.5 100,40 " fill="rgb(248,248,248)" />
	<polygon points="90,50 90,60 97.5,62.5 102.5,57.5 102.5,52.5 97.5,47.5 " fill="rgb(248,248,248)" />
	<polygon points="90,60 90,70 97.5,67.5 97.5,62.5 " fill="rgb(248,248,248)" />
	<polygon points="90,70 90,80 97.5,82.5 102.5,77.5 102.5,72.5 97.5,67.5 " fill="rgb(248,248,248)" />
	<polygon points="90,80 90,90 100,90 97.5,82.5 " fill="rgb(248,248,248)" />
	<polygon points="90,90 90,100 100,100 100,90 " fill="rgb(248,248,248)" />
	<polygon points="90,100 90,110 100,110 100,100 " fill="rgb(248,248,248)" />
	<polygon points="90,110 90,120 97.5,122.5 102.5,117.5 100,110 " fill="rgb(248,248,248)" />
	<polygon points="90,120 90,130 97.5,127.5 97.5,122.5 " fill="rgb(0,0,0)" />
	<polygon points="90,130 90,140 97.5,137.5 102.5,132.5 97.5,127.5 " fill="rgb(248,248,248)" />
	<polygon points="90,140 90,150 100,150 102.5,142.5 97.5,137.5 " fill="rgb(224,224,224)" />
	<polygon points="90,150 87.5,157.5 92.5,162.5 97.5,162.5 102.5,157.5 100,150 " fill="rgb(0,0,0)" />
	<polygon points="92.5,162.5 87.5,167.5 92.5,172.5 97.5,172.5 102.5,167.5 97.5,162.5 " fill="rgb(196,196,196)" />
	<polygon points="92.5,172.5 90,180 100,180 97.5,172.5 " fill="rgb(196,196,196)" />
	<polygon points="100,0 100,10 110,10 110,0 " fill="rgb(196,196,196)" />
	<polygon points="100,10 100,20 110,20 110,10 " fill="rgb(0,0,0)" />
	<polygon points="100,20 100,30 110,30 110,20 " fill="rgb(192,192,192)" />
	<polygon points="100,30 100,40 107.5,42.5 112.5,37.5 110,30 " fill="rgb(88,16,248)" />
	<polygon points="100,40 97.5,47.5 102.5,52.5 107.5,47.5 107.5,42.5 " fill="rgb(248,248,248)" />
	<polygon points="102.5,52.5 102.5,57.5 107.5,62.5 112.5,57.5 112.5,52.5 107.5,47.5 " fill="rgb(88,16,248)" />
	<polygon points="102.5,57.5 97.5,62.5 97.5,67.5 102.5,72.5 107.5,67.5 107.5,62.5 " fill="rgb(248,248,248)" />
	<polygon points="102.5,72.5 102.5,77.5 107.5,82.5 112.5,77.5 112.5,72.5 107.5,67.5 " fill="rgb(88,16,248)" />
	<polygon points="102.5,77.5 97.5,82.5 100,90 107.5,92.5 112.5,87.5 107.5,82.5 " fill="rgb(248,248,248)" />
	<polygon points="100,90 100,100 110,100 107.5,92.5 " fill="rgb(248,248,248)" />
	<polygon points="100,100 100,110 110,110 110,100 " fill="rgb(248,248,248)" />
	<polygon points="100,110 102.5,117.5 110,120 110,110 " fill="rgb(248,248,248)" />
	<polygon points="102.5,117.5 97.5,122.5 97.5,127.5 102.5,132.5 107.5,132.5 112.5,127.5 110,120 " fill="rgb(248,248,248)" />
	<polygon points="102.5,132.5 97.5,137.5 102.5,142.5 107.5,142.5 112.5,137.5 107.5,132.5 " fill="rgb(224,224,224)" />
	<polygon points="102.5,142.5 100,150 107.5,152.5 112.5,147.5 107.5,142.5 " fill="rgb(192,192,192)" />
	<polygon points="100,150 102.5,157.5 110,160 107.5,152.5 " fill="rgb(192,192,192)" />
	<polygon points="102.5,157.5 97.5,162.5 102.5,167.5 110,170 110,160 " fill="rgb(0,0,0)" />
	<polygon points="102.5,167.5 97.5,172.5 100,180 110,180 110,170 " fill="rgb(196,196,196)" />
	<polygon points="110,0 110,10 117.5,12.5 122.5,7.5 120,0 " fill="rgb(196,196,196)" />
	<polygon points="110,10 110,20 117.5,22.5 122.5,17.5 117.5,12.5 " fill="rgb(0,0,0)" />
	<polygon points="110,20 110,30 117.5,32.5 122.5,27.5 117.5,22.5 " fill="rgb(192,192,192)" />
	<polygon points="110,30 112.5,37.5 117.5,42.5 122.5,37.5 117.5,32.5 " fill="rgb(224,224,224)" />
	<polygon points="112.5,37.5 107.5,42.5 107.5,47.5 112.5,52.5 120,50 117.5,42.5 " fill="rgb(88,16,248)" />
	<polygon points="112.5,52.5 112.5,57.5 117.5,62.5 122.5,57.5 120,50 " fill="rgb(248,248,248)" />
	<polygon points="112.5,57.5 107.5,62.5 107.5,67.5 112.5,72.5 117.5,67.5 117.5,62.5 " fill="rgb(88,16,248)" />
	<polygon points="112.5,72.5 112.5,77.5 117.5,82.5 122.5,77.5 122.5,72.5 117.5,67.5 " fill="rgb(248,248,248)" />
	<polygon points="112.5,77.5 107.5,82.5 112.5,87.5 117.5,87.5 117.5,82.5 " fill="rgb(88,16,248)" />
	<polygon points="112.5,87.5 107.5,92.5 110,100 120,100 122.5,92.5 117.5,87.5 " fill="rgb(248,248,248)" />
	<polygon points="110,100 110,110 120,110 120,100 " fill="rgb(248,248,248)" />
	<polygon points="110,110 110,120 120,120 120,110 " fill="rgb(248,248,248)" />
	<polygon points="110,120 112.5,127.5 117.5,127.5 120,120 " fill="rgb(248,248,248)" />
	<polygon points="112.5,127.5 107.5,132.5 112.5,137.5 117.5,137.5 122.5,132.5 117.5,127.5 " fill="rgb(248,248,248)" />
	<polygon points="112.5,137.5 107.5,142.5 112.5,147.5 117.5,147.5 122.5,142.5 117.5,137.5 " fill="rgb(224,224,224)" />
	<polygon points="112.5,147.5 107.5,152.5 110,160 117.5,157.5 122.5,152.5 117.5,147.5 " fill="rgb(192,192,192)" />
	<polygon points="110,160 110,170 117.5,167.5 122.5,162.5 117.5,157.5 " fill="rgb(0,0,0)" />
	<polygon points="110,170 110,180 120,180 122.5,172.5 117.5,167.5 " fill="rgb(196,196,196)" />
	<polygon points="120,0 122.5,7.5 130,10 130,0 " fill="rgb(196,196,196)" />
	<polygon points="122.5,7.5 117.5,12.5 122.5,17.5 130,20 130,10 " fill="rgb(196,196,196)" />
	<polygon points="122.5,17.5 117.5,22.5 122.5,27.5 130,30 130,20 " fill="rgb(0,0,0)" />
	<polygon points="122.5,27.5 117.5,32.5 122.5,37.5 127.5,42.5 132.5,37.5 130,30 " fill="rgb(192,192,192)" />
	<polygon points="122.5,37.5 117.5,42.5 120,50 130,50 127.5,42.5 " fill="rgb(224,224,224)" />
	<polygon points="120,50 122.5,57.5 127.5,62.5 132.5,57.5 130,50 " fill="rgb(224,224,224)" />
	<polygon points="122.5,57.5 117.5,62.5 117.5,67.5 122.5,72.5 130,70 127.5,62.5 " fill="rgb(248,248,248)" />
	<polygon points="122.5,72.5 122.5,77.5 130,80 130,70 " fill="rgb(248,248,248)" />
	<polygon points="122.5,77.5 117.5,82.5 117.5,87.5 122.5,92.5 127.5,92.5 132.5,87.5 130,80 " fill="rgb(248,248,248)" />
	<polygon points="122.5,92.5 120,100 130,100 127.5,92.5 " fill="rgb(248,248,248)" />
	<polygon points="120,100 120,110 130,110 130,100 " fill="rgb(248,248,248)" />
	<polygon points="120,110 120,120 127.5,117.5 130,110 " fill="rgb(248,248,248)" />
	<polygon points="120,120 117.5,127.5 122.5,132.5 127.5,127.5 132.5,122.5 127.5,117.5 " fill="rgb(248,248,248)" />
	<polygon points="122.5,132.5 117.5,137.5 122.5,142.5 127.5,137.5 132.5,132.5 127.5,127.5 " fill="rgb(224,224,224)" />
	<polygon points="122.5,142.5 117.5,147.5 122.5,152.5 130,150 132.5,142.5 127.5,137.5 " fill="rgb(192,192,192)" />
	<polygon points="122.5,152.5 117.5,157.5 122.5,162.5 130,160 130,150 " fill="rgb(0,0,0)" />
	<polygon points="122.5,162.5 117.5,167.5 122.5,172.5 130,170 130,160 " fill="rgb(196,196,196)" />
	<polygon points="122.5,172.5 120,180 130,180 130,170 " fill="rgb(196,196,196)" />
	<polygon points="130,0 130,10 140,10 140,0 " fill="rgb(196,196,196)" />
	<polygon points="130,10 130,20 137.5,22.5 142.5,17.5 140,10 " fill="rgb(196,196,196)" />
	<polygon points="130,20 130,30 137.5,32.5 142.5,27.5 137.5,22.5 " fill="rgb(0,0,0)" />
	<polygon points="130,30 132.5,37.5 137.5,42.5 142.5,37.5 137.5,32.5 " fill="rgb(192,192,192)" />
	<polygon points="132.5,37.5 127.5,42.5 130,50 140,50 137.5,42.5 " fill="rgb(192,192,192)" />
	<polygon points="130,50 132.5,57.5 140,60 140,50 " fill="rgb(192,192,192)" />
	<polygon points="132.5,57.5 127.5,62.5 130,70 140,70 140,60 " fill="rgb(224,224,224)" />
	<polygon points="130,70 130,80 140,80 140,70 " fill="rgb(224,224,224)" />
	<polygon points="130,80 132.5,87.5 137.5,92.5 142.5,87.5 140,80 " fill="rgb(224,224,224)" />
	<polygon points="132.5,87.5 127.5,92.5 130,100 140,100 137.5,92.5 " fill="rgb(248,248,248)" />
	<polygon points="130,100 130,110 140,110 140,100 " fill="rgb(248,248,248)" />
	<polygon points="130,110 127.5,117.5 132.5,122.5 137.5,117.5 140,110 " fill="rgb(248,248,248)" />
	<polygon points="132.5,122.5 127.5,127.5 132.5,132.5 137.5,127.5 142.5,122.5 137.5,117.5 " fill="rgb(224,224,224)" />
	<polygon points="132.5,132.5 127.5,137.5 132.5,142.5 140,140 142.5,132.5 137.5,127.5 " fill="rgb(192,192,192)" />
	<polygon points="132.5,142.5 130,150 137.5,147.5 140,140 " fill="rgb(192,192,192)" />
	<polygon points="130,150 130,160 137.5,157.5 142.5,152.5 137.5,147.5 " fill="rgb(0,0,0)" />
	<polygon points="130,160 130,170 140,170 142.5,162.5 137.5,157.5 " fill="rgb(196,196,196)" />
	<polygon points="130,170 130,180 140,180 140,170 " fill="rgb(196,196,196)" />
	<polygon points="140,0 140,10 150,10 150,0 " fill="rgb(196,196,196)" />
	<polygon points="140,10 142.5,17.5 150,20 150,10 " fill="rgb(196,196,196)" />
	<polygon points="142.5,17.5 137.5,22.5 142.5,27.5 147.5,32.5 152.5,27.5 150,20 " fill="rgb(196,196,196)" />
	<polygon points="142.5,27.5 137.5,32.5 142.5,37.5 147.5,42.5 152.5,37.5 147.5,32.5 " fill="rgb(0,0,0)" />
	<polygon points="142.5,37.5 137.5,42.5 140,50 150,50 147.5,42.5 " fill="rgb(192,192,192)" />
	<polygon points="140,50 140,60 147.5,62.5 152.5,57.5 150,50 " fill="rgb(192,192,192)" />
	<polygon points="140,60 140,70 150,70 147.5,62.5 " fill="rgb(224,224,224)" />
	<polygon points="140,70 140,80 150,80 150,70 " fill="rgb(224,224,224)" />
	<polygon points="140,80 142.5,87.5 150,90 150,80 " fill="rgb(224,224,224)" />
	<polygon points="142.5,87.5 137.5,92.5 140,100 150,100 150,90 " fill="rgb(224,224,224)" />
	<polygon points="140,100 140,110 150,110 150,100 " fill="rgb(224,224,224)" />
	<polygon points="140,110 137.5,117.5 142.5,122.5 150,120 150,110 " fill="rgb(224,224,224)" />
	<polygon points="142.5,122.5 137.5,127.5 142.5,132.5 147.5,127.5 150,120 " fill="rgb(192,192,192)" />
	<polygon points="142.5,132.5 140,140 150,140 152.5,132.5 147.5,127.5 " fill="rgb(0,0,0)" />
	<polygon points="140,140 137.5,147.5 142.5,152.5 147.5,147.5 150,140 " fill="rgb(0,0,0)" />
	<polygon points="142.5,152.5 137.5,157.5 142.5,162.5 150,160 152.5,152.5 147.5,147.5 " fill="rgb(196,196,196)" />
	<polygon points="142.5,162.5 140,170 150,170 150,160 " fill="rgb(196,196,196)" />
	<polygon points="140,170 140,180 150,180 150,170 " fill="rgb(196,196,196)" />
	<polygon points="150,0 150,10 160,10 160,0 " fill="rgb(196,196,196)" />
	<polygon points="150,10 150,20 160,20 160,10 " fill="rgb(196,196,196)" />
	<polygon points="150,20 152.5,27.5 160,30 160,20 " fill="rgb(196,196,196)" />
	<polygon points="152.5,27.5 147.5,32.5 152.5,37.5 157.5,42.5 162.5,37.5 160,30 " fill="rgb(196,196,196)" />
	<polygon points="152.5,37.5 147.5,42.5 150,50 160,50 157.5,42.5 " fill="rgb(0,0,0)" />
	<polygon points="150,50 152.5,57.5 157.5,62.5 162.5,57.5 160,50 " fill="rgb(0,0,0)" />
	<polygon points="152.5,57.5 147.5,62.5 150,70 160,70 157.5,62.5 " fill="rgb(192,192,192)" />
	<polygon points="150,70 150,80 160,80 160,70 " fill="rgb(192,192,192)" />
	<polygon points="150,80 150,90 160,90 160,80 " fill="rgb(192,192,192)" />
	<polygon points="150,90 150,100 160,100 160,90 " fill="rgb(192,192,192)" />
	<polygon points="150,100 150,110 157.5,107.5 160,100 " fill="rgb(192,192,192)" />
	<polygon points="150,110 150,120 160,120 162.5,112.5 157.5,107.5 " fill="rgb(0,0,0)" />
	<polygon points="150,120 147.5,127.5 152.5,132.5 157.5,127.5 160,120 " fill="rgb(0,0,0)" />
	<polygon points="152.5,132.5 150,140 160,140 162.5,132.5 157.5,127.5 " fill="rgb(196,196,196)" />
	<polygon points="150,140 147.5,147.5 152.5,152.5 160,150 160,140 " fill="rgb(196,196,196)" />
	<polygon points="152.5,152.5 150,160 160,160 160,150 " fill="rgb(196,196,196)" />
	<polygon points="150,160 150,170 160,170 160,160 " fill="rgb(196,196,196)" />
	<polygon points="150,170 150,180 160,180 160,170 " fill="rgb(196,196,196)" />
	<polygon points="160,0 160,10 170,10 170,0 " fill="rgb(196,196,196)" />
	<polygon points="160,10 160,20 170,20 170,10 " fill="rgb(196,196,196)" />
	<polygon points="160,20 160,30 170,30 170,20 " fill="rgb(196,196,196)" />
	<polygon points="160,30 162.5,37.5 170,40 170,30 " fill="rgb(196,196,196)" />
	<polygon points="162.5,37.5 157.5,42.5 160,50 170,50 170,40 " fill="rgb(196,196,196)" />
	<polygon points="160,50 162.5,57.5 167.5,62.5 172.5,57.5 170,50 " fill="rgb(196,196,196)" />
	<polygon points="162.5,57.5 157.5,62.5 160,70 170,70 167.5,62.5 " fill="rgb(0,0,0)" />
	<polygon points="160,70 160,80 170,80 170,70 " fill="rgb(0,0,0)" />
	<polygon points="160,80 160,90 170,90 170,80 " fill="rgb(0,0,0)" />
	<polygon points="160,90 160,100 170,100 170,90 " fill="rgb(0,0,0)" />
	<polygon points="160,100 157.5,107.5 162.5,112.5 167.5,107.5 170,100 " fill="rgb(0,0,0)" />
	<polygon points="162.5,112.5 160,120 170,120 172.5,112.5 167.5,107.5 " fill="rgb(196,196,196)" />
	<polygon points="160,120 157.5,127.5 162.5,132.5 170,130 170,120 " fill="rgb(196,196,196)" />
	<polygon points="162.5,132.5 160,140 170,140 170,130 " fill="rgb(196,196,196)" />
	<polygon points="160,140 160,150 170,150 170,140 " fill="rgb(196,196,196)" />
	<polygon points="160,150 160,160 170,160 170,150 " fill="rgb(196,196,196)" />
	<polygon points="160,160 160,170 170,170 170,160 " fill="rgb(196,196,196)" />
	<polygon points="160,170 160,180 170,180 170,170 " fill="rgb(196,196,196)" />
	<polygon points="170,0 170,10 180,10 180,0 " fill="rgb(196,196,196)" />
	<polygon points="170,10 170,20 180,20 180,10 " fill="rgb(196,196,196)" />
	<polygon points="170,20 170,30 180,30 180,20 " fill="rgb(196,196,196)" />
	<polygon points="170,30 170,40 180,40 180,30 " fill="rgb(196,196,196)" />
	<polygon points="170,40 170,50 180,50 180,40 " fill="rgb(196,196,196)" />
	<polygon points="170,50 172.5,57.5 180,60 180,50 " fill="rgb(196,196,196)" />
	<polygon points="172.5,57.5 167.5,62.5 170,70 180,70 180,60 " fill="rgb(196,196,196)" />
	<polygon points="170,70 170,80 180,80 180,70 " fill="rgb(196,196,196)" />
	<polygon points="170,80 170,90 180,90 180,80 " fill="rgb(196,196,196)" />
	<polygon points="170,90 170,100 180,100 180,90 " fill="rgb(196,196,196)" />
	<polygon points="170,100 167.5,107.5 172.5,112.5 180,110 180,100 " fill="rgb(196,196,196)" />
	<polygon points="172.5,112.5 170,120 180,120 180,110 " fill="rgb(196,196,196)" />
	<polygon points="170,120 170,130 180,130 180,120 " fill="rgb(196,196,196)" />
	<polygon points="170,130 170,140 180,140 180,130 " fill="rgb(196,196,196)" />
	<polygon points="170,140 170,150 180,150 180,140 " fill="rgb(196,196,196)" />
	<polygon points="170,150 170,160 180,160 180,150 " fill="rgb(196,196,196)" />
	<polygon points="170,160 170,170 180,170 180,160 " fill="rgb(196,196,196)" />
	<polygon points="170,170 170,180 180,180 180,170 " fill="rgb(196,196,196)" />
</svg>
