<?xml version="1.0" standalone="no" ?>
<!DOCTYPE svg PUBLIC "-//W3C//DTD SVG 1.1//EN" "http://www.w3.org/Graphics/SVG/1.1/DTD/svg11.dtd">
<svg width="180px" height="180px" xmlns="http://www.w3.org/2000/svg" version="1.1" >
	<polyline points="3.9,4 4.019,4.1 4.136,4.2 4.251,4.3 4.364,4.4 4.475,4.5 4.584,4.6 4.691,4.7 4.796,4.8 4.899,4.9 5,5 5.099,5.1 5.196,5.2 5.291,5.3 5.384,5.4 5.475,5.5 5.564,5.6 5.651,5.7 5.736,5.8 5.819,5.9 5.9,6 5.979,6.1 6.056,6.2 6.131,6.3 6.204,6.4 6.275,6.5 6.344,6.6 6.411,6.7 6.476,6.8 6.539,6.9 6.6,7 6.659,7.1 6.716,7.2 6.771,7.3 6.824,7.4 6.875,7.5 6.924,7.6 6.971,7.7 7.016,7.8 7.059,7.9 7.1,8 7.139,8.1 7.176,8.2 7.211,8.3 7.244,8.4 7.275,8.5 7.304,8.6 7.331,8.7 7.356,8.8 7.379,8.9 7.4,9 7.419,9.1 7.436,9.2 7.451,9.3 7.464,9.4 7.475,9.5 7.484,9.6 7.491,9.7 7.496,9.8 7.499,9.9 7.5,10 7.499,10.1 7.496,10.2 7.491,10.3 7.484,10.4 7.475,10.5 7.464,10.6 7.451,10.7 7.436,10.8 7.419,10.9 7.4,11 7.379,11.1 7.356,11.2 7.331,11.3 7.304,11.4 7.275,11.5 7.244,11.6 7.211,11.7 7.176,11.8 7.139,11.9 7.1,12 7.059,12.1 7.016,12.2 6.971,12.3 6.924,12.4 6.875,12.5 6.824,12.6 6.771,12.7 6.716,12.8 6.659,12.9 6.6,13 6.539,13.1 6.476,13.2 6.411,13.3 6.344,13.4 6.275,13.5 6.204,13.6 6.131,13.7 6.056,13.8 5.979,13.9 5.9,14 5.819,14.1 5.736,14.2 5.651,14.3 5.564,14.4 5.47501,14.5 5.38401,14.6 5.29101,14.7 5.19601,14.8 5.09901,14.9 5.00001,15 4.89901,15.1 4.79601,15.2 4.69101,15.3 4.58401,15.4 4.47501,15.5 4.36401,15.6 4.25101,15.7 4.13601,15.8 4.01901,15.9 3.90001,16 " fill="none" stroke-width="1" stroke="rgb(125,225,255)" />
	<polyline points="6.15,13.95 6.0215,14.0595 5.896,14.168 5.7735,14.2755 5.654,14.382 5.5375,14.4875 5.424,14.592 5.3135,14.6955 5.206,14.798 5.1015,14.8995 5,15 4.9015,15.0995 4.806,15.198 4.7135,15.2955 4.624,15.392 4.5375,15.4875 4.454,15.582 4.3735,15.6755 4.296,15.768 4.2215,15.8595 4.15,15.95 4.0815,16.0395 4.016,16.128 3.9535,16.2155 3.894,16.302 3.8375,16.3875 3.784,16.472 3.7335,16.5555 3.686,16.638 3.6415,16.7195 3.6,16.8 3.5615,16.8795 3.526,16.958 3.4935,17.0355 3.464,17.112 3.4375,17.1875 3.414,17.262 3.3935,17.3355 3.376,17.408 3.3615,17.4795 3.35,17.55 3.3415,17.6195 3.336,17.688 3.3335,17.7555 3.334,17.822 3.3375,17.8875 3.344,17.952 3.3535,18.0155 3.366,18.078 3.3815,18.1395 3.4,18.2 3.4215,18.2595 3.446,18.318 3.4735,18.3755 3.504,18.432 3.5375,18.4875 3.574,18.542 3.6135,18.5955 3.656,18.648 3.7015,18.6995 3.75,18.75 3.8015,18.7995 3.856,18.848 3.9135,18.8955 3.974,18.942 4.0375,18.9875 4.104,19.032 4.1735,19.0755 4.246,19.118 4.3215,19.1595 4.4,19.2 4.4815,19.2395 4.566,19.278 4.6535,19.3155 4.744,19.352 4.8375,19.3875 4.934,19.422 5.0335,19.4555 5.136,19.488 5.2415,19.5195 5.35,19.55 5.4615,19.5795 5.576,19.608 5.6935,19.6355 5.81399,19.662 5.9375,19.6875 6.06399,19.712 6.19349,19.7355 6.32599,19.758 6.46149,19.7795 6.59999,19.8 6.74149,19.8195 6.88599,19.838 7.03349,19.8555 7.18399,19.872 7.33749,19.8875 7.49399,19.902 7.65349,19.9155 7.81599,19.928 7.98149,19.9395 8.14999,19.95 8.32149,19.9595 8.49599,19.968 8.67349,19.9755 8.85399,19.982 9.03749,19.9875 9.22399,19.992 9.41349,19.9955 9.60599,19.998 9.80149,19.9995 9.99999,20 10.2015,19.9995 10.406,19.998 10.6135,19.9955 10.824,19.992 11.0375,19.9875 11.254,19.982 11.4735,19.9755 11.696,19.968 11.9215,19.9595 12.15,19.95 " fill="none" stroke-width="1" stroke="rgb(125,0,0)" />
</svg>
